<svg width="25" height="24" viewBox="0 0 25 24" fill="none" xmlns="http://www.w3.org/2000/svg">
<path fill-rule="evenodd" clip-rule="evenodd" d="M16.5473 2.74386V3.77876C19.5581 4.07065 21.0983 5.73355 21.0983 8.72324V16.9935C21.0983 20.3193 19.2013 22.0088 15.4683 22.0088H8.71588C4.98289 22.0088 3.08594 20.3193 3.08594 16.9935V8.72324C3.08594 6.73307 3.76466 5.30898 5.15692 4.47753C5.37639 4.32783 5.66033 4.31738 5.88987 4.45055C6.11942 4.58373 6.25497 4.83755 6.23979 5.10577C6.22461 5.37399 6.0613 5.61034 5.81824 5.71586C4.89587 6.26427 4.46079 7.21955 4.46079 8.72324V8.9886H17.1564C17.5361 8.9886 17.8439 9.30145 17.8439 9.68738C17.8439 10.0733 17.5361 10.3861 17.1564 10.3861H4.46079V16.9935C4.46079 19.5321 5.69642 20.5847 8.71588 20.6024H15.4683C18.4443 20.6024 19.7147 19.5233 19.7147 16.9847V8.7144C19.7147 6.50309 18.7488 5.43282 16.5473 5.1763V5.84854C16.4966 6.20685 16.1879 6.46843 15.8321 6.45478C15.4762 6.44112 15.1878 6.15665 15.1638 5.79547V2.68195C15.1705 2.49497 15.2508 2.31856 15.3865 2.1922C15.5223 2.06585 15.7022 2.00011 15.886 2.00971C16.265 2.0334 16.5574 2.35802 16.5473 2.74386ZM8.79862 6.30158C8.66782 6.43288 8.49072 6.50546 8.3069 6.50309C7.93065 6.49344 7.632 6.17802 7.63688 5.79547V2.74386C7.67644 2.38588 7.97427 2.11524 8.32866 2.11524C8.68305 2.11524 8.98088 2.38588 9.02043 2.74386V3.708H12.9536C13.3332 3.708 13.641 4.02085 13.641 4.40677C13.641 4.79269 13.3332 5.10554 12.9536 5.10554H9.00303V5.80432C9.00305 5.99119 8.92943 6.17028 8.79862 6.30158ZM16.2863 12.624C15.8057 12.624 15.4161 13.02 15.4161 13.5085C15.4161 13.997 15.8057 14.393 16.2863 14.393C16.7669 14.393 17.1564 13.997 17.1564 13.5085C17.1565 13.2724 17.0636 13.0461 16.8985 12.8799C16.7334 12.7138 16.5099 12.6216 16.2776 12.624H16.2863ZM11.2393 13.5085C11.2393 13.02 11.6289 12.624 12.1095 12.624C12.5901 12.624 12.9797 13.02 12.9797 13.5085C12.9797 13.997 12.5901 14.393 12.1095 14.393C11.6289 14.393 11.2393 13.997 11.2393 13.5085ZM7.94144 12.624C7.46086 12.624 7.07127 13.02 7.07127 13.5085C7.07127 13.997 7.46086 14.393 7.94144 14.393C8.42201 14.393 8.8116 13.997 8.8116 13.5085C8.81161 13.2724 8.71874 13.0461 8.55366 12.8799C8.38859 12.7138 8.16502 12.6216 7.93273 12.624H7.94144ZM15.4161 17.0908C15.4161 16.6023 15.8057 16.2063 16.2863 16.2063H16.2776C16.5099 16.204 16.7334 16.2961 16.8985 16.4622C17.0636 16.6284 17.1565 16.8547 17.1564 17.0908C17.1564 17.5793 16.7669 17.9754 16.2863 17.9754C15.8057 17.9754 15.4161 17.5793 15.4161 17.0908ZM12.1095 16.2063C11.6289 16.2063 11.2393 16.6023 11.2393 17.0908C11.2393 17.5793 11.6289 17.9754 12.1095 17.9754C12.5901 17.9754 12.9797 17.5793 12.9797 17.0908C12.9797 16.6023 12.5901 16.2063 12.1095 16.2063ZM7.07127 17.0908C7.07127 16.6023 7.46086 16.2063 7.94144 16.2063H7.93273C8.16502 16.204 8.38859 16.2961 8.55366 16.4622C8.71874 16.6284 8.81161 16.8547 8.8116 17.0908C8.8116 17.5793 8.42201 17.9754 7.94144 17.9754C7.46086 17.9754 7.07127 17.5793 7.07127 17.0908Z" fill="#616164"/>
</svg>
