<svg width="25" height="24" viewBox="0 0 25 24" fill="none" xmlns="http://www.w3.org/2000/svg">
<rect width="24.0164" height="24" transform="translate(0.167969 0.00878906)" fill="white"/>
<path fill-rule="evenodd" clip-rule="evenodd" d="M6.83777 8.00912C6.83777 12.4536 12.1748 16.4536 12.1748 16.4536C12.1748 16.4536 17.5117 12.4536 17.5117 8.00912C17.5117 5.0636 15.1223 2.67578 12.1748 2.67578C9.22722 2.67578 6.83777 5.0636 6.83777 8.00912ZM12.161 17.999C12.1555 17.9951 12.1484 17.9901 12.1397 17.984C11.8715 17.7956 10.1113 16.5591 8.47122 14.6758H6.1856C5.73808 14.6758 5.32036 14.9 5.07323 15.2728L1.53828 20.6062C1.39357 20.8245 1.31641 21.0806 1.31641 21.3425C1.31641 22.0788 1.91377 22.6758 2.65065 22.6758H21.6838C21.9482 22.6758 22.2065 22.5973 22.4262 22.4503C23.0385 22.0406 23.2025 21.2125 22.7925 20.6006L19.2188 15.2673C18.9712 14.8976 18.5553 14.6758 18.1102 14.6758H15.8783C14.2382 16.5591 12.4781 17.7956 12.2098 17.984C12.1861 18.0007 12.174 18.0091 12.1748 18.0091C12.1752 18.0091 12.1705 18.0057 12.161 17.999ZM6.83777 21.3425V20.0091H17.5117V21.3425H6.83777ZM12.1748 10.0091C13.2801 10.0091 14.1761 9.11369 14.1761 8.00912C14.1761 6.90455 13.2801 6.00912 12.1748 6.00912C11.0694 6.00912 10.1734 6.90455 10.1734 8.00912C10.1734 9.11369 11.0694 10.0091 12.1748 10.0091Z" fill="#616164"/>
</svg>
