<svg width="25" height="25" viewBox="0 0 25 25" fill="none" xmlns="http://www.w3.org/2000/svg">
<path fill-rule="evenodd" clip-rule="evenodd" d="M16.5406 3.86125C17.1266 3.2754 17.9213 2.94629 18.75 2.94629C19.5786 2.94629 20.3733 3.2754 20.9593 3.86125L21.1385 4.04041C21.7244 4.62644 22.0535 5.42115 22.0535 6.24979C22.0535 7.07843 21.7244 7.87314 21.1385 8.45916L19.3291 10.2706L9.06976 20.529C8.93642 20.6623 8.76936 20.757 8.58642 20.8029L4.41976 21.8446C4.24519 21.8883 4.06227 21.8861 3.88883 21.8381C3.71539 21.7901 3.55735 21.6979 3.4301 21.5707C3.30285 21.4434 3.21073 21.2854 3.16274 21.112C3.11474 20.9385 3.11249 20.7556 3.15621 20.581L4.19788 16.4144C4.24376 16.2314 4.33845 16.0644 4.47184 15.931L14.7906 5.61229L16.5406 3.86229V3.86125ZM19.4864 5.33416C19.2911 5.13888 19.0262 5.02918 18.75 5.02918C18.4738 5.02918 18.2088 5.13888 18.0135 5.33416L16.9864 6.36125L18.6062 8.04562L19.6656 6.98625C19.8609 6.7909 19.9706 6.526 19.9706 6.24979C19.9706 5.97358 19.8609 5.70867 19.6656 5.51333L19.4864 5.33416ZM17.1323 9.51854L15.5125 7.83521L6.14892 17.1998L5.59788 19.4019L7.80101 18.8508L17.1333 9.51854H17.1323Z" fill="#201F25"/>
</svg>
