<svg width="25" height="24" viewBox="0 0 25 24" fill="none" xmlns="http://www.w3.org/2000/svg">
<path d="M11.6375 18.0594C12.7727 18.0594 13.7788 17.3258 14.1283 16.2453C14.1518 16.1727 14.1189 16.0953 14.0486 16.0625C13.9782 16.0321 13.8961 16.0578 13.8586 16.1235C13.8539 16.1305 13.4552 16.775 11.8955 16.986C11.6727 17.0164 11.4452 17.0328 11.2201 17.0328C10.1295 17.0328 9.64164 16.6203 9.63695 16.618C9.58066 16.5688 9.49858 16.5688 9.43994 16.6157C9.38365 16.6625 9.36958 16.7469 9.40945 16.8102C9.8879 17.5789 10.7393 18.0571 11.6375 18.0594Z" fill="#616164"/>
<path d="M18.1733 9.48144C17.1521 6.7192 14.5086 4.74521 11.3981 4.74521C8.30104 4.74521 5.66427 6.70134 4.63638 9.44571C4.58275 9.38542 4.52689 9.32737 4.46656 9.27601C5.04977 5.93095 7.9301 3.38754 11.4026 3.38754C14.8594 3.38754 17.7308 5.90638 18.3342 9.22688C18.2716 9.30727 18.218 9.39212 18.1733 9.48144ZM19.6168 8.57707C19.6034 8.57707 19.5922 8.5793 19.5788 8.5793C18.7096 4.81667 15.3846 2.00977 11.4004 2.00977C7.30667 2.00977 3.90568 4.97298 3.15264 8.89193C2.40407 9.03037 1.85884 9.68465 1.86331 10.4461V13.5612C1.86331 14.4343 2.56496 15.1421 3.42973 15.1421C3.91686 15.1421 4.34812 14.9121 4.63415 14.5593C5.32686 16.3837 6.72568 17.8575 8.51779 18.639C8.54014 18.5944 8.56695 18.552 8.596 18.5118C8.62505 18.476 8.65633 18.4448 8.68315 18.4448C8.70996 18.4448 8.73678 18.4537 8.75912 18.4693C8.34573 18.1612 6.85529 16.5847 6.53128 14.3807C6.3905 13.4116 7.11673 12.4581 7.96362 12.3017C9.32223 12.0494 10.6741 11.7614 12.0327 11.5135C12.8975 11.3572 13.4874 10.8815 13.8472 10.0933C13.9321 9.90795 14.055 9.53504 14.1109 8.99911C14.1243 8.91872 14.1935 8.85843 14.2762 8.85843C14.3298 8.85843 14.379 8.88523 14.4103 8.92765L14.4483 8.90532C14.9846 9.68241 16.046 11.4041 16.1979 13.2173C16.3722 15.2918 16.2761 16.712 14.6874 18.1656L14.6807 18.1723C14.6583 18.1969 14.6449 18.2282 14.6449 18.2617C14.6449 18.3041 14.6673 18.3443 14.703 18.3666C14.7164 18.3711 14.7298 18.38 14.7432 18.3845C14.7544 18.3867 14.7633 18.389 14.7745 18.3912C14.7857 18.3912 14.7946 18.389 14.8036 18.3845C14.8259 18.3733 14.8483 18.3599 14.8706 18.3465C16.4929 17.4511 17.713 15.9706 18.2783 14.2065C18.5143 14.5541 18.8767 14.796 19.2883 14.8809C18.6179 17.9379 15.8873 19.8538 12.5065 20.1419C12.2919 19.6193 11.7825 19.2799 11.2194 19.2822C10.4551 19.2822 9.83394 19.8873 9.83394 20.6331C9.83394 21.379 10.4551 21.9841 11.2194 21.9841C11.8137 21.9863 12.3433 21.6067 12.531 21.044C16.4437 20.7269 19.581 18.4023 20.2358 14.7916C20.8324 14.5459 21.2212 13.9653 21.2212 13.32V10.1737C21.2257 9.29164 20.5061 8.57707 19.6168 8.57707Z" fill="#616164"/>
</svg>
